<svg viewBox="0 0 24 24" xmlns="http://www.w3.org/2000/svg"><path d="M14,12A2,2 0 0,1 16,14A2,2 0 0,1 14,16A2,2 0 0,1 12,14A2,2 0 0,1 14,12M14,8.5A5.5,5.5 0 0,0 8.5,14C8.5,15.71 9.37,17.2 10.71,18.14L11.64,16.95C10.61,16.28 10,15.22 10,14A4,4 0 0,1 14,10C15.22,10 16.28,10.61 16.95,11.64L18.14,10.71C17.2,9.37 15.71,8.5 14,8.5M14,5A9,9 0 0,0 5,14C5,16.38 6,18.5 7.59,20L8.88,18.71C7.56,17.5 6.5,15.86 6.5,14A7.5,7.5 0 0,1 14,6.5C15.86,6.5 17.5,7.56 18.71,8.88L20,7.59C18.5,6 16.38,5 14,5M14,1.5C9.91,1.5 6.2,3.38 3.69,6.35L5,7.65C7.17,5.03 10.39,3.5 14,3.5C17.61,3.5 20.83,5.03 23,7.65L24.31,6.35C21.8,3.38 18.09,1.5 14,1.5Z"/></svg>