<svg viewBox="0 0 24 24" xmlns="http://www.w3.org/2000/svg"><path d="M18.41,5.8L17.2,4.59C15.41,2.81 12.83,1.78 10,2L10.2,4C12.46,3.84 14.55,4.69 16.06,6.19L17.27,7.4L18.41,5.8M20,10.2C20.16,12.46 19.31,14.55 17.81,16.06L16.6,17.27L18.2,18.41L19.41,17.2C21.19,15.41 22.22,12.83 22,10L20,10.2M5.8,18.41L4.59,17.2C2.81,15.41 1.78,12.83 2,10L4,10.2C3.84,12.46 4.69,14.55 6.19,16.06L7.4,17.27L5.8,18.41M10.2,20C12.46,20.16 14.55,19.31 16.06,17.81L17.27,16.6L18.41,18.2L17.2,19.41C15.41,21.19 12.83,22.22 10,22L10.2,20M2,10.2L4,10C3.84,7.54 4.69,5.45 6.19,3.94L7.4,2.73L5.8,1.59L4.59,2.8C2.81,4.59 1.78,7.17 2,10L2,10.2Z"/></svg>